<mxfile host="app.diagrams.net" agent="Mozilla/5.0 (Windows NT 10.0; Win64; x64) AppleWebKit/537.36 (KHTML, like Gecko) Chrome/140.0.0.0 Safari/537.36" version="28.2.3">
  <diagram name="Página-1" id="r0AL9_NCZ23Igi8Z9eSu">
    <mxGraphModel dx="1665" dy="789" grid="1" gridSize="10" guides="1" tooltips="1" connect="1" arrows="1" fold="1" page="1" pageScale="1" pageWidth="827" pageHeight="1169" math="0" shadow="0">
      <root>
        <mxCell id="0" />
        <mxCell id="1" parent="0" />
        <mxCell id="OXPfhPUKGcKDoe2Cqeus-10" value="4) Crear la clase Integrante que posea nombre, edad, antigüedad y sus constructores.&lt;br&gt;Crear dos clases hijas:&lt;br&gt;Jugador.&lt;br&gt;Tecnico.&lt;br&gt;Jugador debe tener posicion.&lt;br&gt;Tecnico debe tener especialidad.&lt;br&gt;Instanciar en el Main al menos dos objetos de la clase Jugador y dos objetos de la clase Tecnico,&lt;br&gt;ejecutar los métodos descriptos para cada tipo de Integrante y mostrar la información final por&lt;br&gt;pantalla con un método de MostrarInformación().&lt;div&gt;&lt;br&gt;&lt;/div&gt;" style="text;html=1;align=left;verticalAlign=middle;resizable=0;points=[];autosize=1;strokeColor=none;fillColor=none;fontSize=16;" vertex="1" parent="1">
          <mxGeometry x="654" y="230" width="710" height="210" as="geometry" />
        </mxCell>
        <mxCell id="OXPfhPUKGcKDoe2Cqeus-11" value="Integrante" style="swimlane;fontStyle=1;align=center;verticalAlign=top;childLayout=stackLayout;horizontal=1;startSize=26;horizontalStack=0;resizeParent=1;resizeParentMax=0;resizeLast=0;collapsible=1;marginBottom=0;whiteSpace=wrap;html=1;" vertex="1" parent="1">
          <mxGeometry x="805" y="509" width="370" height="190" as="geometry" />
        </mxCell>
        <mxCell id="OXPfhPUKGcKDoe2Cqeus-12" value="+ nombre: string" style="text;strokeColor=none;fillColor=none;align=left;verticalAlign=top;spacingLeft=4;spacingRight=4;overflow=hidden;rotatable=0;points=[[0,0.5],[1,0.5]];portConstraint=eastwest;whiteSpace=wrap;html=1;" vertex="1" parent="OXPfhPUKGcKDoe2Cqeus-11">
          <mxGeometry y="26" width="370" height="26" as="geometry" />
        </mxCell>
        <mxCell id="OXPfhPUKGcKDoe2Cqeus-13" value="+ edad: int" style="text;strokeColor=none;fillColor=none;align=left;verticalAlign=top;spacingLeft=4;spacingRight=4;overflow=hidden;rotatable=0;points=[[0,0.5],[1,0.5]];portConstraint=eastwest;whiteSpace=wrap;html=1;" vertex="1" parent="OXPfhPUKGcKDoe2Cqeus-11">
          <mxGeometry y="52" width="370" height="26" as="geometry" />
        </mxCell>
        <mxCell id="OXPfhPUKGcKDoe2Cqeus-14" value="+ antiguedad: DateTime" style="text;strokeColor=none;fillColor=none;align=left;verticalAlign=top;spacingLeft=4;spacingRight=4;overflow=hidden;rotatable=0;points=[[0,0.5],[1,0.5]];portConstraint=eastwest;whiteSpace=wrap;html=1;" vertex="1" parent="OXPfhPUKGcKDoe2Cqeus-11">
          <mxGeometry y="78" width="370" height="26" as="geometry" />
        </mxCell>
        <mxCell id="OXPfhPUKGcKDoe2Cqeus-15" value="" style="line;strokeWidth=1;fillColor=none;align=left;verticalAlign=middle;spacingTop=-1;spacingLeft=3;spacingRight=3;rotatable=0;labelPosition=right;points=[];portConstraint=eastwest;strokeColor=inherit;" vertex="1" parent="OXPfhPUKGcKDoe2Cqeus-11">
          <mxGeometry y="104" width="370" height="8" as="geometry" />
        </mxCell>
        <mxCell id="OXPfhPUKGcKDoe2Cqeus-16" value="+ Integrante(): void" style="text;strokeColor=none;fillColor=none;align=left;verticalAlign=top;spacingLeft=4;spacingRight=4;overflow=hidden;rotatable=0;points=[[0,0.5],[1,0.5]];portConstraint=eastwest;whiteSpace=wrap;html=1;" vertex="1" parent="OXPfhPUKGcKDoe2Cqeus-11">
          <mxGeometry y="112" width="370" height="26" as="geometry" />
        </mxCell>
        <mxCell id="OXPfhPUKGcKDoe2Cqeus-17" value="+&amp;nbsp;&lt;span style=&quot;background-color: transparent;&quot;&gt;Integrante(nombre: string, edad: int, antiguedad: DateTime)&lt;/span&gt;" style="text;strokeColor=none;fillColor=none;align=left;verticalAlign=top;spacingLeft=4;spacingRight=4;overflow=hidden;rotatable=0;points=[[0,0.5],[1,0.5]];portConstraint=eastwest;whiteSpace=wrap;html=1;" vertex="1" parent="OXPfhPUKGcKDoe2Cqeus-11">
          <mxGeometry y="138" width="370" height="26" as="geometry" />
        </mxCell>
        <mxCell id="OXPfhPUKGcKDoe2Cqeus-18" value="+&amp;nbsp;&lt;span style=&quot;background-color: transparent;&quot;&gt;MostrarInformacion(): void&lt;/span&gt;&lt;div&gt;&lt;span style=&quot;background-color: transparent; color: light-dark(rgb(0, 0, 0), rgb(255, 255, 255));&quot;&gt;&lt;br&gt;&lt;/span&gt;&lt;/div&gt;" style="text;strokeColor=none;fillColor=none;align=left;verticalAlign=top;spacingLeft=4;spacingRight=4;overflow=hidden;rotatable=0;points=[[0,0.5],[1,0.5]];portConstraint=eastwest;whiteSpace=wrap;html=1;" vertex="1" parent="OXPfhPUKGcKDoe2Cqeus-11">
          <mxGeometry y="164" width="370" height="26" as="geometry" />
        </mxCell>
        <mxCell id="OXPfhPUKGcKDoe2Cqeus-19" value="Jugador" style="swimlane;fontStyle=1;align=center;verticalAlign=top;childLayout=stackLayout;horizontal=1;startSize=26;horizontalStack=0;resizeParent=1;resizeParentMax=0;resizeLast=0;collapsible=1;marginBottom=0;whiteSpace=wrap;html=1;" vertex="1" parent="1">
          <mxGeometry x="1035" y="849" width="600" height="138" as="geometry" />
        </mxCell>
        <mxCell id="OXPfhPUKGcKDoe2Cqeus-20" value="+ posicion: string" style="text;strokeColor=none;fillColor=none;align=left;verticalAlign=top;spacingLeft=4;spacingRight=4;overflow=hidden;rotatable=0;points=[[0,0.5],[1,0.5]];portConstraint=eastwest;whiteSpace=wrap;html=1;" vertex="1" parent="OXPfhPUKGcKDoe2Cqeus-19">
          <mxGeometry y="26" width="600" height="26" as="geometry" />
        </mxCell>
        <mxCell id="OXPfhPUKGcKDoe2Cqeus-21" value="" style="line;strokeWidth=1;fillColor=none;align=left;verticalAlign=middle;spacingTop=-1;spacingLeft=3;spacingRight=3;rotatable=0;labelPosition=right;points=[];portConstraint=eastwest;strokeColor=inherit;" vertex="1" parent="OXPfhPUKGcKDoe2Cqeus-19">
          <mxGeometry y="52" width="600" height="8" as="geometry" />
        </mxCell>
        <mxCell id="OXPfhPUKGcKDoe2Cqeus-22" value="+&amp;nbsp;&lt;span style=&quot;background-color: transparent;&quot;&gt;Jugador():void&lt;/span&gt;&lt;div&gt;&lt;br&gt;&lt;/div&gt;" style="text;strokeColor=none;fillColor=none;align=left;verticalAlign=top;spacingLeft=4;spacingRight=4;overflow=hidden;rotatable=0;points=[[0,0.5],[1,0.5]];portConstraint=eastwest;whiteSpace=wrap;html=1;" vertex="1" parent="OXPfhPUKGcKDoe2Cqeus-19">
          <mxGeometry y="60" width="600" height="26" as="geometry" />
        </mxCell>
        <mxCell id="OXPfhPUKGcKDoe2Cqeus-23" value="+&amp;nbsp;&lt;span style=&quot;background-color: transparent;&quot;&gt;Jugador(nombre: string, edad: int, antiguedad: DateTime, posicion: string): base(nombre, edad, antiguedad)&lt;/span&gt;&lt;div&gt;&lt;span style=&quot;background-color: transparent; color: light-dark(rgb(0, 0, 0), rgb(255, 255, 255));&quot;&gt;&lt;br&gt;&lt;/span&gt;&lt;/div&gt;" style="text;strokeColor=none;fillColor=none;align=left;verticalAlign=top;spacingLeft=4;spacingRight=4;overflow=hidden;rotatable=0;points=[[0,0.5],[1,0.5]];portConstraint=eastwest;whiteSpace=wrap;html=1;" vertex="1" parent="OXPfhPUKGcKDoe2Cqeus-19">
          <mxGeometry y="86" width="600" height="26" as="geometry" />
        </mxCell>
        <mxCell id="OXPfhPUKGcKDoe2Cqeus-24" value="+&amp;nbsp;&lt;span style=&quot;background-color: transparent;&quot;&gt;MostrarInformacion(): void&lt;/span&gt;&lt;div&gt;&lt;span style=&quot;background-color: transparent; color: light-dark(rgb(0, 0, 0), rgb(255, 255, 255));&quot;&gt;&lt;br&gt;&lt;/span&gt;&lt;/div&gt;" style="text;strokeColor=none;fillColor=none;align=left;verticalAlign=top;spacingLeft=4;spacingRight=4;overflow=hidden;rotatable=0;points=[[0,0.5],[1,0.5]];portConstraint=eastwest;whiteSpace=wrap;html=1;" vertex="1" parent="OXPfhPUKGcKDoe2Cqeus-19">
          <mxGeometry y="112" width="600" height="26" as="geometry" />
        </mxCell>
        <mxCell id="OXPfhPUKGcKDoe2Cqeus-25" value="Tecnico" style="swimlane;fontStyle=1;align=center;verticalAlign=top;childLayout=stackLayout;horizontal=1;startSize=26;horizontalStack=0;resizeParent=1;resizeParentMax=0;resizeLast=0;collapsible=1;marginBottom=0;whiteSpace=wrap;html=1;" vertex="1" parent="1">
          <mxGeometry x="360" y="849" width="600" height="164" as="geometry" />
        </mxCell>
        <mxCell id="OXPfhPUKGcKDoe2Cqeus-26" value="+ especialidad: string" style="text;strokeColor=none;fillColor=none;align=left;verticalAlign=top;spacingLeft=4;spacingRight=4;overflow=hidden;rotatable=0;points=[[0,0.5],[1,0.5]];portConstraint=eastwest;whiteSpace=wrap;html=1;" vertex="1" parent="OXPfhPUKGcKDoe2Cqeus-25">
          <mxGeometry y="26" width="600" height="26" as="geometry" />
        </mxCell>
        <mxCell id="OXPfhPUKGcKDoe2Cqeus-27" value="" style="line;strokeWidth=1;fillColor=none;align=left;verticalAlign=middle;spacingTop=-1;spacingLeft=3;spacingRight=3;rotatable=0;labelPosition=right;points=[];portConstraint=eastwest;strokeColor=inherit;" vertex="1" parent="OXPfhPUKGcKDoe2Cqeus-25">
          <mxGeometry y="52" width="600" height="8" as="geometry" />
        </mxCell>
        <mxCell id="OXPfhPUKGcKDoe2Cqeus-28" value="+ &lt;span style=&quot;background-color: transparent;&quot;&gt;Tecnico():void&lt;/span&gt;&lt;div&gt;&lt;br&gt;&lt;div&gt;&lt;br&gt;&lt;div&gt;&lt;br&gt;&lt;/div&gt;&lt;/div&gt;&lt;/div&gt;" style="text;strokeColor=none;fillColor=none;align=left;verticalAlign=top;spacingLeft=4;spacingRight=4;overflow=hidden;rotatable=0;points=[[0,0.5],[1,0.5]];portConstraint=eastwest;whiteSpace=wrap;html=1;" vertex="1" parent="OXPfhPUKGcKDoe2Cqeus-25">
          <mxGeometry y="60" width="600" height="26" as="geometry" />
        </mxCell>
        <mxCell id="OXPfhPUKGcKDoe2Cqeus-29" value="+ &lt;span style=&quot;background-color: transparent;&quot;&gt;Tecnico(nombre: string, edad: int, antiguedad: DateTime, posicion: string): base(nombre, edad, antiguedad)&lt;/span&gt;&lt;div&gt;&lt;br&gt;&lt;div&gt;&lt;br&gt;&lt;div&gt;&lt;br&gt;&lt;/div&gt;&lt;/div&gt;&lt;/div&gt;" style="text;strokeColor=none;fillColor=none;align=left;verticalAlign=top;spacingLeft=4;spacingRight=4;overflow=hidden;rotatable=0;points=[[0,0.5],[1,0.5]];portConstraint=eastwest;whiteSpace=wrap;html=1;" vertex="1" parent="OXPfhPUKGcKDoe2Cqeus-25">
          <mxGeometry y="86" width="600" height="26" as="geometry" />
        </mxCell>
        <mxCell id="OXPfhPUKGcKDoe2Cqeus-30" value="+&amp;nbsp;&lt;span style=&quot;background-color: transparent;&quot;&gt;Especialidad(): void&lt;/span&gt;&lt;div&gt;&lt;br&gt;&lt;div&gt;&lt;br&gt;&lt;/div&gt;&lt;/div&gt;" style="text;strokeColor=none;fillColor=none;align=left;verticalAlign=top;spacingLeft=4;spacingRight=4;overflow=hidden;rotatable=0;points=[[0,0.5],[1,0.5]];portConstraint=eastwest;whiteSpace=wrap;html=1;" vertex="1" parent="OXPfhPUKGcKDoe2Cqeus-25">
          <mxGeometry y="112" width="600" height="26" as="geometry" />
        </mxCell>
        <mxCell id="OXPfhPUKGcKDoe2Cqeus-31" value="+&amp;nbsp;&lt;span style=&quot;background-color: transparent;&quot;&gt;MostrarInformacion(): void&lt;/span&gt;&lt;div&gt;&lt;div&gt;&lt;span style=&quot;background-color: transparent; color: light-dark(rgb(0, 0, 0), rgb(255, 255, 255));&quot;&gt;&lt;br&gt;&lt;/span&gt;&lt;/div&gt;&lt;/div&gt;" style="text;strokeColor=none;fillColor=none;align=left;verticalAlign=top;spacingLeft=4;spacingRight=4;overflow=hidden;rotatable=0;points=[[0,0.5],[1,0.5]];portConstraint=eastwest;whiteSpace=wrap;html=1;" vertex="1" parent="OXPfhPUKGcKDoe2Cqeus-25">
          <mxGeometry y="138" width="600" height="26" as="geometry" />
        </mxCell>
      </root>
    </mxGraphModel>
  </diagram>
</mxfile>
